<svg xmlns="http://www.w3.org/2000/svg" width="749" height="205" fill="none" viewBox="0 0 749 205"><path fill="#fff" d="M707.613 161.434q-10.851 0-19.622-5.055-8.622-5.054-13.527-13.973-4.905-9.067-4.905-20.216 0-10.703 4.608-19.622 4.757-9.067 13.229-14.27 8.474-5.35 19.325-5.351 11.148 0 19.324 4.905 8.325 4.906 12.635 13.676 4.311 8.621 4.311 19.919 0 1.338-.148 2.676-.149 1.337-.149 1.486H685.91q.743 10.109 7.284 15.608t14.865 5.5q12.784 0 19.621-11.892l13.973 6.69q-4.905 9.067-13.675 14.567-8.622 5.352-20.365 5.352m18.73-48.311q-.298-3.569-2.379-7.284-2.08-3.717-6.54-6.243-4.31-2.676-10.852-2.676-7.284 0-12.635 4.459-5.202 4.46-7.135 11.744zM633.671 161.434q-12.635 0-20.959-5.798-8.177-5.946-11.595-14.865l14.568-6.243q2.527 6.094 7.284 9.216 4.905 3.122 10.702 3.122 6.095 0 9.96-2.23 3.865-2.378 3.865-6.094 0-3.568-3.122-5.798-3.121-2.378-10.257-4.162l-10.108-2.378q-8.324-1.933-14.419-7.135-5.946-5.352-5.946-13.825 0-10.257 8.473-16.203 8.474-6.094 20.811-6.094 10.257 0 18.135 4.31 8.028 4.311 11.595 12.487l-14.419 6.095q-2.08-4.608-6.392-6.838-4.31-2.23-9.365-2.23-4.905 0-8.621 2.23-3.717 2.08-3.717 5.649 0 3.121 2.527 5.054 2.676 1.932 8.325 3.27l11 2.676q11.148 2.823 16.648 8.621 5.5 5.65 5.5 13.676 0 6.54-4.013 11.892-3.865 5.351-10.852 8.473-6.837 3.122-15.608 3.122M555.444 161.434q-7.878 0-14.27-3.122-6.244-3.27-9.96-8.919-3.568-5.797-3.568-13.081 0-11.595 8.622-18.284 8.77-6.69 22.149-6.689 11.743 0 20.068 4.013v-3.121q0-6.69-5.352-11-5.202-4.46-12.635-4.46-11.298 0-18.135 9.216l-12.487-8.621q5.204-6.987 12.933-10.703 7.878-3.716 17.689-3.716 16.203 0 24.973 8.176 8.919 8.026 8.919 22.743v45.189h-15.905v-9.067h-.892q-3.568 5.054-9.068 8.324-5.5 3.122-13.081 3.122m2.676-13.528q5.5 0 10.108-2.675 4.756-2.825 7.432-7.284 2.825-4.608 2.825-9.811-7.88-4.311-16.798-4.311-8.175 0-12.784 3.568-4.608 3.568-4.608 9.067 0 5.055 4.014 8.325 4.161 3.121 9.811 3.121M486.84 161.433q-8.026 0-14.419-3.419-6.243-3.419-9.365-8.621h-.891v9.662h-15.46V52.622h16.351v31.96l-.891 10.256h.891q3.122-5.053 9.365-8.473 6.393-3.418 14.419-3.418 9.515 0 17.541 5.054 8.175 5.054 12.932 14.121 4.906 8.919 4.906 20.068t-4.906 20.067q-4.757 8.92-12.932 14.122-8.026 5.054-17.541 5.054m-2.824-15.013q5.797 0 10.703-2.973 5.054-2.974 8.027-8.473 3.121-5.649 3.121-12.784t-3.121-12.635q-2.973-5.649-8.027-8.622-4.906-2.973-10.703-2.973-5.798 0-10.851 2.973-4.906 2.973-8.027 8.473-2.973 5.5-2.973 12.784t2.973 12.784q3.121 5.5 8.027 8.473 5.053 2.973 10.851 2.973M401.585 161.434q-10.85 0-19.621-5.055-8.622-5.054-13.527-13.973-4.906-9.067-4.906-20.216 0-10.703 4.608-19.622 4.757-9.067 13.23-14.27 8.473-5.35 19.325-5.351 11.148 0 19.324 4.905 8.324 4.906 12.635 13.676 4.311 8.621 4.311 19.919 0 1.338-.149 2.676-.148 1.337-.148 1.486h-56.784q.743 10.109 7.283 15.608 6.541 5.5 14.865 5.5 12.784 0 19.622-11.892l13.973 6.69q-4.905 9.067-13.676 14.567-8.621 5.352-20.365 5.352m18.73-48.311q-.297-3.569-2.378-7.284-2.082-3.717-6.541-6.243-4.311-2.676-10.851-2.676-7.284 0-12.635 4.459-5.203 4.46-7.135 11.744zM318.152 85.325h15.46v11h.892q2.378-5.648 8.621-9.365 6.244-3.864 12.784-3.864 5.351 0 8.771 1.486v17.095q-5.055-2.527-11.298-2.527-8.026 0-13.527 6.243-5.35 6.094-5.351 15.013v38.649h-16.352zM294.814 72.838q-4.608 0-7.878-3.121-3.122-3.27-3.122-7.879 0-4.608 3.122-7.73 3.27-3.27 7.878-3.27t7.73 3.27q3.27 3.123 3.271 7.73t-3.271 7.879q-3.121 3.12-7.73 3.121m-8.175 12.487h16.351v73.73h-16.351zM212.16 52.622h64.663v15.906h-48.014v30.621h43.257v15.757h-43.257v44.149H212.16z"/><path fill="#FF9100" d="M51.45 191.109a77.7 77.7 0 0 0 26.358 5.568 77.5 77.5 0 0 0 35.305-7.116 110 110 0 0 1-34.418-21.609c-6.437 10.308-15.959 18.449-27.245 23.157"/><path fill="#FFC400" d="M78.694 167.955c-22.67-20.967-36.424-51.314-35.261-84.6.037-1.08.095-2.16.161-3.24a58.7 58.7 0 0 0-30.66.32 77.4 77.4 0 0 0-10.16 35.793c-1.173 33.624 19.174 63.003 48.674 74.884a58.88 58.88 0 0 0 27.246-23.157"/><path fill="#FF9100" d="M78.695 167.954c5.27-8.435 8.466-18.324 8.838-28.978.979-28.026-17.862-52.135-43.938-58.862-.067 1.08-.124 2.16-.161 3.24-1.163 33.286 12.59 63.633 35.26 84.6"/><path fill="#DD2C00" d="M84.617 1.335C69.766 13.233 58.038 28.921 50.943 46.994a109.7 109.7 0 0 0-7.36 33.127c26.076 6.727 44.917 30.836 43.938 58.862a58.5 58.5 0 0 1-8.838 28.978A109.8 109.8 0 0 0 113.1 189.57c25.79-11.921 44.088-37.574 45.147-67.916.687-19.659-6.866-37.18-17.539-51.969-11.271-15.64-56.09-68.35-56.09-68.35"/></svg>